<mxfile host="app.diagrams.net" modified="2023-12-04T10:05:05.098Z" agent="Mozilla/5.0 (Windows NT 10.0; Win64; x64) AppleWebKit/537.36 (KHTML, like Gecko) Chrome/119.0.0.0 Safari/537.36 Edg/119.0.0.0" etag="3ONkfYlZpQeH1F86LDk5" version="22.1.5" type="device">
  <diagram name="Pagina-1" id="GT8tT5VioU7g9reS3nWB">
    <mxGraphModel dx="1002" dy="569" grid="1" gridSize="10" guides="1" tooltips="1" connect="1" arrows="1" fold="1" page="1" pageScale="1" pageWidth="827" pageHeight="1169" math="0" shadow="0">
      <root>
        <mxCell id="0" />
        <mxCell id="1" parent="0" />
        <mxCell id="j0h6h2ulBtthX_gA2TkT-6" style="edgeStyle=orthogonalEdgeStyle;rounded=0;orthogonalLoop=1;jettySize=auto;html=1;exitX=1;exitY=0.5;exitDx=0;exitDy=0;exitPerimeter=0;jumpStyle=none;endArrow=none;endFill=0;entryX=1;entryY=0.5;entryDx=0;entryDy=0;entryPerimeter=0;" edge="1" parent="1" source="j0h6h2ulBtthX_gA2TkT-1" target="j0h6h2ulBtthX_gA2TkT-3">
          <mxGeometry relative="1" as="geometry">
            <mxPoint x="520" y="470" as="targetPoint" />
          </mxGeometry>
        </mxCell>
        <mxCell id="j0h6h2ulBtthX_gA2TkT-7" style="edgeStyle=none;rounded=0;orthogonalLoop=1;jettySize=auto;html=1;exitX=0;exitY=0.5;exitDx=0;exitDy=0;exitPerimeter=0;endArrow=none;endFill=0;" edge="1" parent="1" source="j0h6h2ulBtthX_gA2TkT-1">
          <mxGeometry relative="1" as="geometry">
            <mxPoint x="520" y="130" as="targetPoint" />
          </mxGeometry>
        </mxCell>
        <mxCell id="j0h6h2ulBtthX_gA2TkT-1" value="" style="pointerEvents=1;verticalLabelPosition=bottom;shadow=0;dashed=0;align=center;html=1;verticalAlign=top;shape=mxgraph.electrical.resistors.resistor_1;rotation=90;rounded=1;labelBackgroundColor=none;" vertex="1" parent="1">
          <mxGeometry x="470" y="220" width="100" height="20" as="geometry" />
        </mxCell>
        <mxCell id="j0h6h2ulBtthX_gA2TkT-3" value="" style="pointerEvents=1;verticalLabelPosition=bottom;shadow=0;dashed=0;align=center;html=1;verticalAlign=top;shape=mxgraph.electrical.diodes.diode;rounded=1;labelBackgroundColor=none;" vertex="1" parent="1">
          <mxGeometry x="380" y="290" width="100" height="60" as="geometry" />
        </mxCell>
        <mxCell id="j0h6h2ulBtthX_gA2TkT-8" style="edgeStyle=none;rounded=0;orthogonalLoop=1;jettySize=auto;html=1;exitX=0;exitY=0.5;exitDx=0;exitDy=0;exitPerimeter=0;endArrow=none;endFill=0;" edge="1" parent="1" source="j0h6h2ulBtthX_gA2TkT-4">
          <mxGeometry relative="1" as="geometry">
            <mxPoint x="160" y="320" as="targetPoint" />
          </mxGeometry>
        </mxCell>
        <mxCell id="j0h6h2ulBtthX_gA2TkT-4" value="" style="pointerEvents=1;verticalLabelPosition=bottom;shadow=0;dashed=0;align=center;html=1;verticalAlign=top;shape=mxgraph.electrical.diodes.diode;rounded=1;labelBackgroundColor=none;" vertex="1" parent="1">
          <mxGeometry x="280" y="290" width="100" height="60" as="geometry" />
        </mxCell>
        <mxCell id="j0h6h2ulBtthX_gA2TkT-9" value="&lt;span style=&quot;font-size: 24px;&quot;&gt;ESP&lt;/span&gt;" style="text;html=1;align=center;verticalAlign=middle;resizable=0;points=[];autosize=1;strokeColor=none;fillColor=none;" vertex="1" parent="1">
          <mxGeometry x="80" y="300" width="70" height="40" as="geometry" />
        </mxCell>
        <mxCell id="j0h6h2ulBtthX_gA2TkT-11" value="" style="edgeStyle=none;orthogonalLoop=1;jettySize=auto;html=1;rounded=0;" edge="1" parent="1">
          <mxGeometry width="100" relative="1" as="geometry">
            <mxPoint x="520" y="320" as="sourcePoint" />
            <mxPoint x="680" y="320" as="targetPoint" />
            <Array as="points" />
          </mxGeometry>
        </mxCell>
        <mxCell id="j0h6h2ulBtthX_gA2TkT-12" value="&lt;font style=&quot;font-size: 24px;&quot;&gt;DATA&lt;/font&gt;" style="text;html=1;align=center;verticalAlign=middle;resizable=0;points=[];autosize=1;strokeColor=none;fillColor=none;" vertex="1" parent="1">
          <mxGeometry x="680" y="300" width="80" height="40" as="geometry" />
        </mxCell>
        <mxCell id="j0h6h2ulBtthX_gA2TkT-14" value="&lt;font style=&quot;font-size: 24px;&quot;&gt;5V&lt;/font&gt;" style="text;html=1;align=center;verticalAlign=middle;resizable=0;points=[];autosize=1;strokeColor=none;fillColor=none;" vertex="1" parent="1">
          <mxGeometry x="495" y="83" width="50" height="40" as="geometry" />
        </mxCell>
      </root>
    </mxGraphModel>
  </diagram>
</mxfile>
